<svg width="32" height="32" viewBox="0 0 32 32" fill="none" xmlns="http://www.w3.org/2000/svg">
<path d="M24.4851 9.40034L17.8855 16L24.4851 22.5997C25.0037 23.1182 25.0037 23.9667 24.4851 24.4853C23.9666 25.0038 23.1181 25.0038 22.5995 24.4853L15.9999 17.8856L9.4002 24.4853C8.88165 25.0038 8.03313 25.0038 7.51458 24.4853C6.99604 23.9667 6.99604 23.1182 7.51458 22.5997L14.1142 16L7.51458 9.40034C6.99604 8.8818 6.99604 8.03327 7.51458 7.51472C8.03313 6.99618 8.88165 6.99618 9.4002 7.51472L15.9999 14.1144L22.5995 7.51472C23.1181 6.99618 23.9666 6.99618 24.4851 7.51472C25.0037 8.03327 25.0037 8.8818 24.4851 9.40034Z" fill="url(#paint0_linear_261_97748)"/>
<defs>
<linearGradient id="paint0_linear_261_97748" x1="6.35276" y1="7.12581" x2="28.1836" y2="8.4754" gradientUnits="userSpaceOnUse">
<stop stop-color="#E6E2FF"/>
<stop offset="1" stop-color="#464EA0"/>
</linearGradient>
</defs>
</svg>
