<svg width="32" height="32" viewBox="0 0 32 32" fill="none" xmlns="http://www.w3.org/2000/svg">
<path d="M24.4851 9.40034L17.8854 16L24.4851 22.5997C25.0036 23.1182 25.0036 23.9667 24.4851 24.4853C23.9665 25.0038 23.118 25.0038 22.5995 24.4853L15.9998 17.8856L9.40014 24.4853C8.88159 25.0038 8.03306 25.0038 7.51452 24.4853C6.99597 23.9667 6.99597 23.1182 7.51452 22.5997L14.1142 16L7.51452 9.40034C6.99597 8.8818 6.99597 8.03327 7.51452 7.51472C8.03306 6.99618 8.88159 6.99618 9.40014 7.51472L15.9998 14.1144L22.5995 7.51472C23.118 6.99618 23.9665 6.99618 24.4851 7.51472C25.0036 8.03327 25.0036 8.8818 24.4851 9.40034Z" fill="url(#paint0_linear_273_151688)"/>
<defs>
<linearGradient id="paint0_linear_273_151688" x1="6.3527" y1="7.12581" x2="28.1835" y2="8.4754" gradientUnits="userSpaceOnUse">
<stop stop-color="#FFE2FC"/>
<stop offset="1" stop-color="#B633A0"/>
</linearGradient>
</defs>
</svg>
