<svg width="44" height="44" viewBox="0 0 44 44" fill="none" xmlns="http://www.w3.org/2000/svg">
<path d="M17.4166 28.5706V15.4293C17.4169 15.2649 17.4614 15.1036 17.5454 14.9622C17.6295 14.8209 17.75 14.7048 17.8943 14.6261C18.0387 14.5474 18.2016 14.5089 18.3659 14.5147C18.5302 14.5206 18.6899 14.5705 18.8283 14.6593L29.051 21.2281C29.1804 21.3111 29.2869 21.4252 29.3607 21.5601C29.4344 21.695 29.4731 21.8462 29.4731 22C29.4731 22.1537 29.4344 22.305 29.3607 22.4398C29.2869 22.5747 29.1804 22.6889 29.051 22.7718L18.8283 29.3425C18.6899 29.4313 18.5302 29.4812 18.3659 29.487C18.2016 29.4929 18.0387 29.4544 17.8943 29.3757C17.75 29.2969 17.6295 29.1808 17.5454 29.0395C17.4614 28.8982 17.4169 28.7369 17.4166 28.5725V28.5706Z" fill="#E2E2FF"/>
<path d="M1.83301 21.8335C1.83301 10.788 10.7876 1.8335 21.833 1.8335C32.8785 1.8335 41.833 10.788 41.833 21.8335C41.833 32.879 32.8785 41.8335 21.833 41.8335C10.7876 41.8335 1.83301 32.879 1.83301 21.8335ZM21.833 4.56077C17.252 4.56077 12.8586 6.38057 9.61935 9.61983C6.38008 12.8591 4.56028 17.2525 4.56028 21.8335C4.56028 26.4145 6.38008 30.8079 9.61935 34.0472C12.8586 37.2864 17.252 39.1062 21.833 39.1062C26.414 39.1062 30.8074 37.2864 34.0467 34.0472C37.2859 30.8079 39.1057 26.4145 39.1057 21.8335C39.1057 17.2525 37.2859 12.8591 34.0467 9.61983C30.8074 6.38057 26.414 4.56077 21.833 4.56077Z" fill="#E2E2FF"/>
</svg>
