<svg width="37" height="40" viewBox="0 0 37 40" fill="none" xmlns="http://www.w3.org/2000/svg">
<rect width="36.5217" height="40" rx="18.2609" fill="#2851B7"/>
<circle cx="20" cy="20" r="16" fill="#E2E2FF"/>
<path d="M12.583 25.3212C11.553 24.2272 11 23.0002 11 21.0112C11 17.5112 13.457 14.3742 17.03 12.8232L17.923 14.2012C14.588 16.0052 13.936 18.3462 13.676 19.8222C14.213 19.5442 14.916 19.4472 15.605 19.5112C17.409 19.6782 18.831 21.1592 18.831 23.0002C18.831 23.9285 18.4623 24.8187 17.8059 25.4751C17.1495 26.1315 16.2593 26.5002 15.331 26.5002C14.8176 26.4958 14.3103 26.3893 13.8385 26.1869C13.3667 25.9845 12.94 25.6902 12.583 25.3212ZM22.583 25.3212C21.553 24.2272 21 23.0002 21 21.0112C21 17.5112 23.457 14.3742 27.03 12.8232L27.923 14.2012C24.588 16.0052 23.936 18.3462 23.676 19.8222C24.213 19.5442 24.916 19.4472 25.605 19.5112C27.409 19.6782 28.831 21.1592 28.831 23.0002C28.831 23.9285 28.4623 24.8187 27.8059 25.4751C27.1495 26.1315 26.2593 26.5002 25.331 26.5002C24.8176 26.4958 24.3103 26.3893 23.8385 26.1869C23.3667 25.9845 22.94 25.6902 22.583 25.3212Z" fill="#39394A"/>
</svg>
